<?xml version="1.0" encoding="utf-8"?>
<!-- Generator: Adobe Illustrator 25.0.0, SVG Export Plug-In . SVG Version: 6.00 Build 0)  -->
<svg version="1.1" id="Layer_1" xmlns="http://www.w3.org/2000/svg" xmlns:xlink="http://www.w3.org/1999/xlink" x="0px" y="0px"
	 viewBox="0 0 937.4 850" style="enable-background:new 0 0 937.4 850;" xml:space="preserve">
<style type="text/css">
	.st0{fill:#FFFFFF;}
	.st1{fill:#F05333;}
	.st2{fill:#FCBB30;}
	.st3{fill:#1E3160;}
	.st4{fill:#0A7EC2;}
</style>
<g>
	<path class="st0" d="M745.5,403.5c-44.8,168.8-126.9,282.1-276.1,374.3c-56-34.7-103.7-73.3-143.5-117.4l31.8-15.1
		c33.8,39.5,73,74.7,116.9,104.4c3.6-2.4,7.2-4.8,11-7.4c0,0-0.1,0-0.1-0.1l9-6.1c110.8-78.5,189.4-188.9,227.7-320.4
		c-12.5-6-27.5-12.4-44.5-18.7c-6.7-2.6-13.6-5-20.8-7.4c-3.4-1-6.7-2.1-10.3-3.4c0,0,4.8,19,5.8,25.4
		c12.6,79-12.7,162.8-75.6,221.5c-36.9,34.5-81.6,55.5-127.9,63.2l-15.1,2.5c-2.2-2.1-4.5-4.2-6.7-6.4c0,0,14-1.3,22.1-3.1
		c0.1,0,0.2,0,0.3,0c7.2-0.9,15.2-3.1,21.2-4.9c29-8.6,51.9-19.6,74-35.2c0,0,0,0-0.1,0c5.4-3.6,10.4-7.6,15.3-11.6l0.3-0.2
		c28.5-23.9,51.5-53.9,66.8-88.4l-0.2,0.2c6-13.6,10.8-27.8,14.3-42.6l0.2-0.3c4.1-17.9,6.4-36.4,6.4-55.6c0-23.2-3.3-45.5-9.3-66.8
		c-8.5-2.5-17.1-4.8-25.8-7c0,0,0,0,0,0l-14.3-3.4l-8.1-2c-37.4-7.7-75.7-11.8-115-12.2c-84.3,2.4-163.6,21.8-240.2,58
		c8.6,30.2,19.4,59.3,32.2,87.4c-5.4,5.7-11.4,12.1-12.6,13.4c-5,5.8-9.3,11.8-13,18c-20.1-40.4-35.9-84.3-47.9-132.6
		c91.5-45.7,172.6-69.9,276.1-69.9S654.5,357.8,745.5,403.5z M923.8,484.8c-64.9,19.8-130.7,41.8-195.6,65.3
		c-27.9,57.2-62.7,106.5-106.1,150.8c-40.3,41.1-88.9,78.5-148.5,114.2l-3.6,2.2l-3.6-2.2c-52.1-31.3-96.2-64.3-134.5-101
		c-89.9,42.1-176.8,86.4-258.3,131.6c-4.5,2.8-9.3,4.3-13.6,4.3c-5.9,0-10.5-2.8-12.2-7.5c-1.6-4.3-1.4-11.3,8.8-20.4
		c34.5-30.7,71.8-60.3,111-88.1c-6.9-4-11.6-9.3-14.2-15.9c-6.3-16.2,2.4-35.8,8.7-50.1c0.4-0.9,0.8-1.8,1.2-2.7l0,0l0,0
		c10.2-22.8,19.1-42.3,27.4-60.1c-57.8,18.5-113.4,37.4-165.5,56.3c-3.9,1.6-7.6,2.4-11.1,2.4c-7.1,0-12.5-3.5-14-9
		c-0.9-3.2-1.4-11.4,12.2-19.5c58.2-37.1,122.3-70.8,190.7-100.4c-16.2-35-29.3-72.3-38.9-111l-8.1-32.8l-1.3-5.4l4.9-2.5
		c57.4-29.5,103.5-48.5,149.6-61.6c51.2-14.5,103.7-21.6,160.6-21.6c56.9,0,109.4,7.1,160.6,21.6c46.1,13.1,92.2,32.1,149.6,61.6
		l4.9,2.5l-1.3,5.3c-1.2,4.9-2.4,9.8-3.7,14.6c13-0.4,26.1-0.5,38.9-0.5c34.3,0,68.5,1.3,101.7,3.7c10.3,0.8,15.1,8,15.2,14.5
		c0.1,6.5-4.8,13.6-14.3,14.6c-52.4,7.4-105.6,16-158.3,25.5c-1.8,5.4-3.5,10.5-5.3,15.5c54.3-11.1,108.2-18.7,160.4-22.8
		c0.9-0.1,1.7-0.1,2.6-0.1c10.3,0,15.6,6.2,16.2,12.3C938,474.8,933.6,482.5,923.8,484.8z M919.6,470.7
		c-59.7,4.8-121.6,14.1-184.7,28.1c6.2-15.6,11.9-31.6,17.3-48.2c56.6-10.3,112.5-19.4,167.4-27.1c-51-3.9-104-4.8-158.5-2.6
		c2.5-9,4.9-18.2,7.3-27.5c-99.1-51-186-78.8-298.3-78.8s-199.2,27.8-298.3,78.8l6.7,27c10.8,43.6,25.7,84.2,44.4,121.9
		c-73.5,30.9-141.5,66.4-202.8,105.4c64-23.2,130.3-45.5,198.5-66.6l-41.6,90.3c-6.9,15.1-21.3,41.9,0.7,51.3
		c20.1,5.2,39.3-8.2,56.8-17.2c2.7-1.4,5.7-2.9,8.3-4.2c-64.7,40.8-124.1,85.1-176.6,131.5c85-47,174.8-92.9,268.4-136.6
		c32.3,32.2,76.8,68.4,135.3,103.9c117.3-70.3,195.6-152.9,247.6-261.7C785.9,513.5,853.4,490.9,919.6,470.7z M620.1,438.9
		c2.7-10.8,5.5-21.8,8.2-32.6c-12,1.7-23.9,3.4-35.9,5.5c-9.4,1.5-18,4.6-25.2,11.7c-5.8,6.2-8.9,13.7-11.5,21.6
		c-7.6,23.7-15.1,47.6-22.8,71.3c-2.9,9.4-7.9,26.4,7.2,25.2c5.2-0.9,10-2.9,14.8-5c15.3-6.5,30.6-12.9,45.8-19.2
		c3.9-14.9,7.7-29.9,11.7-44.8c-8.1,2.6-16,5.2-24,7.7c-1.9,6.7-3.8,13.4-5.7,20.3c-5.7,2.1-11.2,4.1-16.8,6.2
		c7-24,14.1-48.3,21.1-72.3c5-1,10-2.1,14.9-3.1c-1.2,4.3-2.4,8.4-3.4,12.7C605.7,442.3,612.9,440.6,620.1,438.9z M299.2,652.5
		c-15.6,7.7-31.1,15.5-46.5,23.4c-14.3,7.2-34.3,20.8-50.5,16.7c-14.6-6.4-0.9-30.7,3.6-40.9c17.2-38.5,34.9-76.8,53.6-114.5
		c6.4-12.9,13-25.4,22.7-36.4c16.7-18.4,37.4-28.3,60.8-34.7c13.6-3.6,27.1-7.2,40.7-10.5c10-2.6,33-10.8,37.4,2.7
		c2.2,10.1-4.6,21.8-8.6,31.1c-10.5,24.7-20.8,49.6-30.9,74.5c-4.8,11.5-9.6,23.2-16,34C349.4,623.5,325.7,639.4,299.2,652.5z
		 M313.3,608.2c16.5-39,33.5-77.8,51-116.4c-10.8,3.4-21.6,6.7-32.5,10.1c-19.2,40.7-37.6,81.7-55.5,122.9
		C288.7,619.2,300.9,613.7,313.3,608.2z M385.2,611.3c17.7-8.4,35.4-16.7,53.1-24.7c8.1-22.2,16.1-44.3,24.4-66.5
		c7.6,15.1,14.9,30.2,22.3,45.3c11.3-5.2,22.8-10.1,34.3-15.1c-7-16-14.1-31.8-21.1-47.7c12.7-19.2,25.4-38.5,38.5-57.5
		c3.6-0.9,7.2-1.7,11-2.6c2.7-8.2,5.5-16.5,8.2-24.9c-10.8,1.9-21.3,3.8-31.8,5.8c-17,22.3-33.8,44.8-50.7,67.3
		c7.7-20.8,15.6-41.4,23.5-62c-17.7,3.6-35.4,7.4-52.9,11.5c-4.6,10.6-9.1,21.3-13.6,31.9c3.8-1,7.6-2.1,11.3-3.1
		c-13.9,33.5-27.3,67.1-40.5,101C395.9,583.8,390.6,597.5,385.2,611.3z"/>
	<path class="st1" d="M381.1,634.1c7,0.7,14.4,1,20.8,1.2c-0.3,9.8-3.5,16.4-8.5,21.5c-5.8-6.7-11.4-13.5-16.9-20.5L381.1,634.1z
		 M459.6,598.1c-3.3-6.9-5.2-9.4-8.4-16.1L446,596l-22.8,18.7l-8.9,4.1l0.3,3.3c18.5-0.3,36.4-2.4,52.9-6.2c0-6.9,0-13.9-0.3-21.1
		L459.6,598.1z M402.4,666.9c7.9,8.8,16.4,17.3,24.8,25.5c7.6-0.7,14.9-1.7,22.3-3.1c1.5-1.4,3.3-3.1,5.2-5c0.2-0.2,0.3-0.3,0.5-0.7
		c7.6-7.7,10.8-27.3,11.7-53.9c-16.3,3.4-33.3,5.3-51.5,5.7C414.9,649.9,410.1,660,402.4,666.9z M424.2,448.3l14.1-14.8l11-2.4
		c-3.3-21.6-6.2-41.6-9.1-57.2c-48.3,6.9-95,19.8-140.7,38.5l1.3,3c8.1,16.5,17.6,31.8,27.9,46.5c3.9-1.4,7.9-2.6,12-3.8
		c13.7-3.6,27.4-7.2,41.2-10.7C394.5,444.3,414.4,437.9,424.2,448.3z M287.1,417.7c-6.2,2.7-12.1,5.4-18.3,8.3
		c5.7,19.7,12.2,39.1,19.6,57.8c7.9-6.6,17.9-12.6,27.7-16.9c-10.1-14.6-19.3-29.2-27-45.2L287.1,417.7z M20.2,647.7
		c64-23.2,130.3-45.5,198.5-66.6c3.9-8.1,7.9-16.1,11.8-24.2c-2.6-4.8-5.2-9.6-7.6-14.6C149.5,573.2,81.5,608.7,20.2,647.7z
		 M598.5,373.3C598.5,373.3,598.5,373.3,598.5,373.3c4.8,1.1,9.5,2.3,14.2,3.5c0,0,0,0,0,0C607.9,375.5,603.3,374.3,598.5,373.3z
		 M525.9,613.5c-13.6,4.6-28.7,8.9-45.7,13.2c-0.2,5.7-0.3,38.8-9.4,57.7c26.8-7.6,51.5-19.4,73.7-35
		C532.6,643.9,526.3,628.7,525.9,613.5z M612.7,376.8c-0.7,8.1-1.9,16.5-3.6,24.5c9.8-1.5,19.8-3.2,29.7-4.8
		c-3.9,16.1-8.1,32.5-12.2,48.8l-19.8,21l16.8-5.3c-5.3,20.8-11,41.9-16.3,62.7L586,546c-8.9,3.8-23.9,10.8-38.1,16.8
		c-3.9,12.4-6.5,22.8-7.9,31.4c48.9-19.7,74.2-45.2,101.5-88.1c4.1-17.9,6.4-36.4,6.4-55.6c0-23.2-3.3-45.5-9.3-66.8
		C630,381.3,621.4,378.9,612.7,376.8z M760.9,420.9c-2.9,10.1-5.8,20.1-8.9,29.7c56.7-10.3,112.6-19.4,167.6-27.1
		C868.6,419.5,815.5,418.6,760.9,420.9z M525.7,368.1c-24.6,0-48.6,1.4-72.5,4.1c2.9,15.5,6,34.9,9.3,56c15.6-3.4,31.4-7,47-10.3
		l-5.2,13.2l-0.7,1.7l16-16.8c15.8-3.1,31.8-6,47.6-8.9l-2.7,8.4c8.2-6.9,17.9-10.3,27.1-11.8l1.4-0.2c2.7-11.1,4.5-21.1,5.5-30.2
		c-2.7-0.6-5.4-1.3-8.1-1.9C569.1,369.2,547.5,368.1,525.7,368.1z M538.6,609c-0.3,30.2,18.5,28.9,21.5,28.5
		c28.5-23.9,51.9-54.1,67.1-88.6C604.3,575.7,578.1,594.1,538.6,609z M526.6,598.9c0.9-8.8,2.7-18.9,6-30.6c-5,1.7-9.6,2.9-13.2,3.6
		c-2.6,0.2-4.6,0.2-6.5-0.2l-4.5,4.6c-9.4,4.1-18.9,8.4-28.3,12.7c0.3,8.2,0.3,15.8,0.5,23.5C499.2,608,513,603.7,526.6,598.9z"/>
	<path class="st2" d="M485.5,742.3c-3.8,2.6-7.4,5-11,7.4c-44-29.7-83.1-64.9-116.9-104.4l18.9-9c5.5,7,11.3,14.1,17.2,20.8
		c2.9,3.3,5.8,6.5,8.8,9.8C427.5,694.4,455.3,719.6,485.5,742.3z M475.4,359.2c-84.3,2.4-163.6,21.8-240.2,58
		c8.6,30.2,19.4,59.4,32.3,87.6l8.8-9.4c3.8-4.3,7.9-8.1,12.2-11.6c-7.4-18.7-13.9-38-19.6-57.8c6.2-2.9,12.4-5.7,18.5-8.4
		c4.1-1.7,8.2-3.4,12.4-5.2c45.7-18.7,92.4-31.6,140.5-38.5c4.3-0.5,8.8-1.2,13.2-1.7c23.7-2.9,47.7-4.3,72.3-4.3
		c22,0,43.4,1.2,64.7,3.4C553,363.7,514.7,359.6,475.4,359.2z"/>
	<path class="st3" d="M364.3,491.8c-17.5,38.6-34.5,77.4-51,116.4c-12.4,5.5-24.6,11-36.9,16.7c17.9-41.2,36.2-82.2,55.5-122.9
		C342.7,498.5,353.5,495.2,364.3,491.8z M768.3,393.4c-46,185.4-133.8,308-298.3,406.6c-62-37.1-116.2-80.7-161.2-131.2
		c-12.5,6-22.5,10.8-27.6,13.4c-15.5,7.7-31.1,15.5-46.5,23.4c-17.5,8.9-36.7,22.3-56.8,17.2c-22-9.4-7.6-36.2-0.7-51.3
		c17-38.5,34.9-76.6,53.4-114.4c-22.3-41.9-39.8-87.4-52-136.7l-6.7-27c99.1-51,186-78.8,298.3-78.8S669.2,342.4,768.3,393.4z
		 M365.5,597.9c6.4-10.8,11.2-22.5,16-34c10.1-24.9,20.4-49.8,30.9-74.5c3.9-9.3,10.8-20.9,8.6-31.1c-4.5-13.6-27.5-5.3-37.4-2.7
		c-13.6,3.3-27.1,6.9-40.7,10.5c-23.4,6.4-44.1,16.3-60.8,34.7c-9.6,11-16.3,23.5-22.7,36.4c-18.7,37.8-36.4,76.1-53.6,114.5
		c-4.5,10.1-18.2,34.5-3.6,40.9c16.1,4.1,36.2-9.4,50.5-16.7c15.5-7.9,30.9-15.6,46.5-23.4C325.7,639.4,349.4,623.5,365.5,597.9z
		 M441.9,469.1c-13.9,33.5-27.3,67.1-40.5,101c-5.5,13.7-10.8,27.5-16.1,41.2c17.7-8.4,35.4-16.7,53.1-24.7
		c8.1-22.2,16.1-44.3,24.4-66.5c7.6,15.1,14.9,30.2,22.3,45.3c11.3-5.2,22.8-10.1,34.3-15.1c-7-16-14.1-31.8-21.1-47.7
		c12.7-19.2,25.4-38.5,38.5-57.5c3.6-0.9,7.2-1.7,11-2.6c2.7-8.2,5.5-16.5,8.2-24.9c-10.8,1.9-21.3,3.8-31.8,5.8
		c-17,22.3-33.8,44.8-50.7,67.3c7.7-20.8,15.6-41.4,23.5-62c-17.7,3.6-35.4,7.4-52.9,11.5c-4.6,10.6-9.1,21.3-13.6,31.9
		C434.3,471.2,438.1,470.1,441.9,469.1z M601.9,431.3c-1.2,4.3-2.4,8.4-3.4,12.7c7.2-1.7,14.4-3.4,21.6-5.2
		c2.7-10.8,5.5-21.8,8.2-32.6c-12,1.7-23.9,3.4-35.9,5.5c-9.4,1.5-18,4.6-25.2,11.7c-5.8,6.2-8.9,13.7-11.5,21.6
		c-7.6,23.7-15.1,47.6-22.8,71.3c-2.9,9.4-7.9,26.4,7.2,25.2c5.2-0.9,10-2.9,14.8-5c15.3-6.5,30.6-12.9,45.8-19.2
		c3.9-14.9,7.7-29.9,11.7-44.8c-8.1,2.6-16,5.2-24,7.7c-1.9,6.7-3.8,13.4-5.7,20.3c-5.7,2.1-11.2,4.1-16.8,6.2
		c7-24,14.1-48.3,21.1-72.3C592,433.4,597,432.4,601.9,431.3z M519.3,572c-2.4,0.2-4.6,0.2-6.5-0.2l-4.5,4.6
		c-9.3,4.5-18.7,8.6-28.3,12.7c0.3,8.1,0.5,16,0.5,23.5c17.3-4.3,32.5-8.9,46-13.7c0.9-8.8,2.7-18.9,6-30.6
		C527.6,570.1,523.1,571.3,519.3,572z M467.1,594.8l-7.6,3.3c-3.3-6.7-5.2-9.4-8.4-16.1L446,596l-22.8,18.7l-8.9,4.1l0.3,3.3
		c18.4-0.3,36.2-2.4,52.9-6.2C467.5,609.2,467.3,602.2,467.1,594.8z M745.5,403.5c-91-45.7-172.1-69.9-275.6-69.9
		s-184.6,24.2-276.1,69.9c12,48.3,27.8,92.2,47.9,132.6c3.8-6.2,8.1-12.2,13-18c2.2-2.4,21.3-22.5,21.3-22.5
		c11.8-13,25.4-22.2,40-28.7c-10-14.4-19.4-29.5-27.1-45.5l-1.8-3.7c4.1-1.7,8.2-3.6,12.4-5.2l1.4,3.2c7.9,16.3,17.5,31.6,27.8,46.4
		c3.9-1.4,8.1-2.6,12-3.8c13.6-3.6,27.3-7.2,41-10.6c12.5-3.3,32.6-9.8,42.4,0.7l14.1-14.8l11-2.4c-3.3-21.6-6.4-41.6-9.1-57.2
		c4.5-0.7,8.8-1.2,13-1.7c2.9,15.5,6,34.9,9.3,56c15.6-3.4,31.4-7,47-10.3l-5.3,13.6l-0.5,1.4l16-16.8c15.8-3.1,31.6-6,47.6-8.9
		l-2.7,8.4c8.2-7,17.7-10.3,26.9-11.8l1.6-0.2c2.7-11.2,4.5-21.1,5.5-30.2c4.8,1,9.6,2.3,14.2,3.5c-0.7,8.1-1.8,16.1-3.6,24.5
		c9.8-1.5,19.9-3.3,29.7-4.8c-4.1,16.3-8.1,32.6-12.2,48.8l-19.8,21l16.8-5.3c-5.3,20.8-10.8,41.9-16.3,62.7L586,546
		c-8.9,3.8-23.9,10.8-38.1,16.8c-3.9,12.4-6.5,22.8-7.9,31.4c48.9-19.7,74.2-45.2,101.5-88.1C638,521,633,535.6,627,549.1
		c-22.8,27-48.6,45-88.4,59.9c-0.3,30.2,18.5,28.8,21.5,28.5c-5,4.1-10.1,8.2-15.6,11.8c-11.8-5.5-18-20.3-18.5-35.9
		c-13.6,4.6-28.7,8.9-45.7,13.2c-0.2,5.7-0.3,38.8-9.4,57.7c-7,2.1-13.9,3.8-21.3,5c1.4-1.4,3.5-3.3,5.2-5c0.2-0.2,0.3-0.4,0.5-0.7
		c7.6-7.7,10.8-27.3,11.7-53.9c-16.3,3.4-33.3,5.3-51.5,5.7c-0.3,14.6-5.2,24.6-12.9,31.4c-2.9-3.3-6.1-6.8-9-10.1
		c5-5.2,8.2-11.7,8.5-21.5c-6.4-0.2-13.7-0.5-20.8-1.2c-17.5,8.2-37.6,17.9-55.3,26.3c39.8,44.1,87.6,82.8,143.5,117.4
		C618.6,685.6,700.7,572.3,745.5,403.5z"/>
	<path class="st4" d="M919.6,470.7c-66.3,20.3-133.8,42.9-202.1,67.7c6-12.9,11.8-25.9,17.2-39.5
		C797.9,484.7,859.8,475.5,919.6,470.7z M281.2,682.2c-12.4,6.2-26,12.9-38.2,19.1c-65.2,41-123.7,84.8-176.6,131.5
		c85-47,174.8-92.9,268.4-136.6c-8.9-8.9-17.5-17.9-25.9-27.3C296.3,674.8,286.3,679.6,281.2,682.2z M677.7,397
		c-6.7-2.6-13.6-5-20.8-7.4c-3.4-1-6.7-2.1-10.3-3.4c0.7,2.2,1.4,4.6,2.1,7.6l0.2,0.7l0.2,0.7l0.2,0.7l0.2,1l0.3,1l0.2,0.7l0.2,0.9
		l0.2,0.9l0.2,1l0.2,0.9l0.2,0.9l0.2,0.9l0.2,0.9l0.2,0.9l0.2,0.7c0.3,1.7,0.7,3.6,1,5.3c12.9,79-12.7,162.8-75.6,221.5
		c-36.9,34.5-81.6,55.5-127.9,63.2l-15.1,2.5c0,0,19.1,19.2,51.6,43.4l9-6.1c110.8-78.5,189.4-188.9,227.7-320.4
		C709.6,409.7,694.7,403.3,677.7,397z"/>
</g>
<g>
	<path class="st3" d="M79.8,117l108.2,221.8l-25.6,12.5l-108.2-222l-25.8,12.5l-12.5-25.6l76.9-37.6l12.5,25.8L79.8,117z M362.7,7.3
		l-28.2,4.5l38.6,243.8l-28.2,4.5L306.4,16.3l-28.2,4.5l36.6,232c3.6,23.2,25.8,39.3,48.9,35.5c23.2-3.6,39.3-25.8,35.5-48.9
		L362.7,7.3z M188.5,43.9l38.1,117.4l-27.1,8.9L161.3,52.8L134,61.6l85.2,262l27.1-8.8l-38.1-117.4l27.1-8.8l38.1,117.4l27.1-8.8
		l-85-262.2L188.5,43.9z M910.3,145l-44.6,91.5c-5.8,11.8-15.8,16.8-27,11.3l-30.6,122.8l-25.8-12.5L813,235.4l-8.4-4.1l-54.1,111.3
		L724.7,330L845.8,81.7l51.3,25.1C911.4,113.8,917.2,130.8,910.3,145z M884.7,132.7L859,120.1l-41.7,85.5l25.8,12.5L884.7,132.7z
		 M483.1,82.9c-0.3,24.4,1,73.3,2.1,96.5h-0.7c-7.4-61.5-21.1-118.8-30-176.9L427.6,2l-4.8,275.4l28.5,0.5l1.4-79.8
		c0.5-24.4-1-73.3-2.2-96.5h0.7c7.4,61.5,21.1,118.8,30,176.9l27,0.5L513,3.5L484.5,3L483.1,82.9z M695.9,189.2l40.7,13.2l8.8-27.1
		L704.6,162L734,71.7l54.3,17.7l8.9-27.1l-54.3-17.7c-15.1-4.8-31.1,3.3-36.1,18.4l-67.5,207.6c-4.8,15.1,3.3,31.1,18.4,36.1
		l54.3,17.7l8.8-27.1l-54.3-17.7L695.9,189.2z M652.6,49l-34,215.7c-2.4,15.6-17,26.1-32.6,23.7l-56.5-8.9l43.1-272l56.3,8.9
		C644.5,18.8,655,33.4,652.6,49z M624.4,44.6l-28.2-4.5l-34.2,215.7l28.2,4.5L624.4,44.6z"/>
</g>
</svg>
